/* XPM */
static char *result[] = {
/* columns rows colors chars-per-pixel */
"80 80 8 1 ",
"  c #754C60",
". c #90625D",
"X c #BE9F8A",
"o c #D99A9A",
"O c #DCB98A",
"+ c #E8B5AC",
"@ c #F3E5C2",
"# c None",
/* pixels */
"################################################################################",
"################################################################################",
"################################################################################",
"################################################################################",
"################################################################################",
"################################################################################",
"################################################################################",
"################################################################################",
"################################################################################",
"################################################################################",
"################################################################################",
"################################################################################",
"################################################################################",
"################################################################################",
"################################################################################",
"################################################################################",
"################################################################################",
"################################################################################",
"################################################################################",
"################################################################################",
"################################################################################",
"################################################################################",
"################################################################################",
"################################################################################",
"################################################################################",
"################################################################################",
"################################################################################",
"################################################################################",
"################################################################################",
"################################################################################",
"################################################################################",
"################################################################################",
"################################################################################",
"############################################......#####......###################",
"############################################......#####......###################",
"############################################......#####......###################",
"#########################################...@@@...#####...@@@..#################",
"#########################################...@@@...#####...@@@..#################",
"#########################################...@@@...#####...@@@..#################",
"#################################......##...@@@...........@@@..######.....######",
"#################################......##...@@@...........@@@..######.....######",
"###################..............@@@@@@.....OOOOOOOOOOOOOO@@@@@......@@@@@...###",
"###################..............@@@@@@.....OOOOOOOOOOOOOO@@@@@......@@@@@...###",
"###################..............@@@@@@.....OOOOOOOOOOOOOO@@@@@......@@@@@...###",
"##############.....OOOOOOOOO@@...@@@@@@@@@@@OOOOOOOOOOOOOO@@@@@@@@...@@@@@...###",
"##############.....OOOOOOOOO@@...@@@@@@@@@@@OOOOOOOOOOOOOO@@@@@@@@...@@@@@...###",
"##############.....OOOOOOOOO@@...@@@@@@@@@@@OOOOOOOOOOOOOO@@@@@@@@...@@@@@...###",
"###########...OOOOOOOOOOOOOO@@...++++++@@OOOOOOOOO  OOO@@@@@@  @@@...+++++...###",
"###########...OOOOOOOOOOOOOO@@...++++++@@OOOOOOOOO  OOO@@@@@@  @@@...+++++...###",
"###########...OOOOOOOOOOOOOO@@...++++++@@OOOOOOOOO  OOO@@@@@@  @@@...+++++...###",
"###########...OOOOOOOOOOO@@@@@@@@........OOOOOOOOO  @@@@@@@@@  @@@@@@.....######",
"###########...OOOOOOOOOOO@@@@@@@@........OOOOOOOOO  @@@@@@@@@  @@@@@@.....######",
"########......OOOOO@@@@@@@@@@@@@@@@@@@@@@@@@@@@@@@@@@@@@@@@@@@@@@@@@@...########",
"########......OOOOO@@@@@@@@@@@@@@@@@@@@@@@@@@@@@@@@@@@@@@@@@@@@@@@@@@...########",
"########......OOOOO@@@@@@@@@@@@@@@@@@@@@@@@@@@@@@@@@@@@@@@@@@@@@@@@@@...########",
"######..OOO...@@@@@@@@@@@@@@@@OOOOOO@@@@@@@@@@@@@@@@+++++++++++++++++...########",
"######..OOO...@@@@@@@@@@@@@@@@OOOOOO@@@@@@@@@@@@@@@@+++++++++++++++++...########",
"######..OOO...@@@@@@@@@@@@@@@@OOOOOO@@@@@@@@@@@@@@@@+++++++++++++++++...########",
"###...OO......@@@@@@@@@@@@@@OOOOOOOOOOO@@...@@@@@@+++++ooo+++++ooo+++...########",
"###...OO......@@@@@@@@@@@@@@OOOOOOOOOOO@@...@@@@@@+++++ooo+++++ooo+++...########",
"###...OO......@@@@@@@@@@@@@@OOOOOOOOOOO@@...@@@@@@+++++ooo+++++ooo+++...########",
"###.....###...@@@@@@@@@@@@@@@@OOOOOO@@@@@@@@...@@@+++++++++++++++++++...########",
"###.....###...@@@@@@@@@@@@@@@@OOOOOO@@@@@@@@...@@@+++++++++++++++++++...########",
"###########...OOOOOOOOOOO@@@@@@@@@@@@@@@@@@@OOO......................###########",
"###########...OOOOOOOOOOO@@@@@@@@@@@@@@@@@@@OOO......................###########",
"###########...OOOOOOOOOOO@@@@@@@@@@@@@@@@@@@OOO......................###########",
"########...OOOOOOOOOOOOOOOOOOOOOOOOOOOOOOOOOOOOOOO..############################",
"########...OOOOOOOOOOOOOOOOOOOOOOOOOOOOOOOOOOOOOOO..############################",
"########...OOOOOOOOOOOOOOOOOOOOOOOOOOOOOOOOOOOOOOO..############################",
"######..OOOOOOOOO...........................OOOOOOOO...#########################",
"######..OOOOOOOOO...........................OOOOOOOO...#########################",
"######..OOOOOOOOO...........................OOOOOOOO...#########################",
"######..OOOOOO...#####...XXXXX...###...XXXXX...OOOOO...#########################",
"######..OOOOOO...#####...XXXXX...###...XXXXX...OOOOO...#########################",
"########......###########.....#########.....###.....############################",
"########......###########.....#########.....###.....############################",
"########......###########.....#########.....###.....############################",
"################################################################################",
"################################################################################",
"################################################################################"
};
