/* XPM */
static char *result[] = {
/* columns rows colors chars-per-pixel */
"80 80 8 1 ",
"  c #754C60",
". c #90625D",
"X c #BE9F8A",
"o c #D99A9A",
"O c #DCB98A",
"+ c #E8B5AC",
"@ c #F3E5C2",
"# c None",
/* pixels */
"################################################################################",
"################################################################################",
"################################################################################",
"################################################################################",
"################################################################################",
"################################################################################",
"################################################################################",
"################################################################################",
"################################################################################",
"################################################################################",
"################################################################################",
"################################################################################",
"################################################################################",
"################################################################################",
"################################################################################",
"################################################################################",
"################################################################################",
"################################################################################",
"################################################################################",
"################################################################################",
"################################################################################",
"################################################################################",
"################################################################################",
"################################################################################",
"################################################################################",
"################################################################################",
"################################################################################",
"################################################################################",
"################################################################################",
"################################################################################",
"############################################......#####......###################",
"############################################......#####......###################",
"############################################......#####......###################",
"#########################################...@@@...#####...@@@..#################",
"#########################################...@@@...#####...@@@..#################",
"#########################################...@@@...#####...@@@..#################",
"#################################......##...@@@...........@@@..######.....######",
"#################################......##...@@@...........@@@..######.....######",
"#################################......##...@@@...........@@@..######.....######",
"##############################...@@@@@@.....OOOOOOOOOOOOOO@@@@@......@@@@@...###",
"##############################...@@@@@@.....OOOOOOOOOOOOOO@@@@@......@@@@@...###",
"###################..............@@@@@@@@@@@OOOOOOOOOOOOOO@@@@@@@@...@@@@@...###",
"###################..............@@@@@@@@@@@OOOOOOOOOOOOOO@@@@@@@@...@@@@@...###",
"###################..............@@@@@@@@@@@OOOOOOOOOOOOOO@@@@@@@@...@@@@@...###",
"##############.....OOOOOOOOO@@...++++++@@OOOOOOOOO  OOO@@@@@@  @@@...+++++...###",
"##############.....OOOOOOOOO@@...++++++@@OOOOOOOOO  OOO@@@@@@  @@@...+++++...###",
"##############.....OOOOOOOOO@@...++++++@@OOOOOOOOO  OOO@@@@@@  @@@...+++++...###",
"###########...OOOOOOOOOOOOOO@@@@@........OOOOOOOOO  @@@@@@@@@  @@@@@@.....######",
"###########...OOOOOOOOOOOOOO@@@@@........OOOOOOOOO  @@@@@@@@@  @@@@@@.....######",
"###########...OOOOOOOOOOOOOO@@@@@........OOOOOOOOO  @@@@@@@@@  @@@@@@.....######",
"###########...OOOOOOOOOOO@@@@@@@@@@@@@@@@@@@@@@@@@@@@@@@@@@@@@@@@@@@@...########",
"###########...OOOOOOOOOOO@@@@@@@@@@@@@@@@@@@@@@@@@@@@@@@@@@@@@@@@@@@@...########",
"########......OOOOO@@@@@@@@@@@@@@@@@@@@@@@@@@@@@@@@@+++++++++++++++++...########",
"########......OOOOO@@@@@@@@@@@@@@@@@@@@@@@@@@@@@@@@@+++++++++++++++++...########",
"########......OOOOO@@@@@@@@@@@@@@@@@@@@@@@@@@@@@@@@@+++++++++++++++++...########",
"######..OOO...@@@@@@@@@@@@@@@@OOOOOO@@@@@...@@@@@@+++++ooo+++++ooo+++...########",
"######..OOO...@@@@@@@@@@@@@@@@OOOOOO@@@@@...@@@@@@+++++ooo+++++ooo+++...########",
"######..OOO...@@@@@@@@@@@@@@@@OOOOOO@@@@@...@@@@@@+++++ooo+++++ooo+++...########",
"###...OO......@@@@@@@@@@@@@@OOOOOOOOOOO@@@@@...@@@+++++++++++++++++++...########",
"###...OO......@@@@@@@@@@@@@@OOOOOOOOOOO@@@@@...@@@+++++++++++++++++++...########",
"###...OO......@@@@@@@@@@@@@@OOOOOOOOOOO@@@@@...@@@+++++++++++++++++++...########",
"###.....###...@@@@@@@@@@@@@@@@OOOOOO@@@@@@@@@@@......................###########",
"###.....###...@@@@@@@@@@@@@@@@OOOOOO@@@@@@@@@@@......................###########",
"###########...OOOOOOOOOOO@@@@@@@@@@@@@@@@@@@OOOOOOOO...#########################",
"###########...OOOOOOOOOOO@@@@@@@@@@@@@@@@@@@OOOOOOOO...#########################",
"###########...OOOOOOOOOOO@@@@@@@@@@@@@@@@@@@OOOOOOOO...#########################",
"###########...OOOOOOOOOOOOOOOOOOOOOOOOOOOOOOOOOOOOOO...#########################",
"###########...OOOOOOOOOOOOOOOOOOOOOOOOOOOOOOOOOOOOOO...#########################",
"###########...OOOOOOOOOOOOOOOOOOOOOOOOOOOOOOOOOOOOOO...#########################",
"########...XXX.....OOOOOOOOO........OOOOOOOO........XXX...######################",
"########...XXX.....OOOOOOOOO........OOOOOOOO........XXX...######################",
"########...XXX.....OOOOOOOOO........OOOOOOOO........XXX...######################",
"########...XXXXXX.....OOOOOO..###...OOOOO...###...XXXXX...######################",
"########...XXXXXX.....OOOOOO..###...OOOOO...###...XXXXX...######################",
"###########......#####......########.....#########.....#########################",
"###########......#####......########.....#########.....#########################",
"###########......#####......########.....#########.....#########################",
"################################################################################",
"################################################################################",
"################################################################################"
};
