/* XPM */
static char *result[] = {
/* columns rows colors chars-per-pixel */
"80 80 5 1 ",
"  c #957A4B",
". c #B09643",
"X c #BFA954",
"o c #D4C169",
"O c None",
/* pixels */
"OOOOOOOOOOOOOOOOOOOOOOOOOOOOOOOOOOOOOOOOOOOOOOOOOOOOOOOOOOOOOOOOOOOOOOOOOOOOOOOO",
"OOOOOOOOOOOOOOOOOOOOOOOOOOOOOOOOOOOOOOOOOOOOOOOOOOOOOOOOOOOOOOOOOOOOOOOOOOOOOOOO",
"OOOOOOOOOOOOOOOOOOOOOOOOOOOOOOOOOOOOOOOOOOOOOOOOOOOOOOOOOOOOOOOOOOOOOOOOOOOOOOOO",
"OOOOOOOOOOOOOOOOOOOOOOOOOOOOOOOOOOOOOOOOOOOOOOOOOOOOOOOOOOOOOOOOOOOOOOOOOOOOOOOO",
"OOOOOOOOOOOOOOOOOOOOOOOOOOOOOOOOOOOOOOOOOOOOOOOOOOOOOOOOOOOOOOOOOOOOOOOOOOOOOOOO",
"OOOOOOOOOOOOOOOOOOOOOOOOOOOOOOOOOOOOOOOOOOOOOOOOOOOOOOOOOOOOOOOOOOOOOOOOOOOOOOOO",
"OOOOOOOOOOOOOOOOOOOOOOOOOOOOOOOOOOOOOOOOOOOOOOOOOOOOOOOOOOOOOOOOOOOOOOOOOOOOOOOO",
"OOOOOOOOOOOOOOOOOOOOOOOOOOOOOOOOOOOOOOOOOOOOOOOOOOOOOOOOOOOOOOOOOOOOOOOOOOOOOOOO",
"OOOOOOOOOOOOOOOOOOOOOOOOOOOOOOOOOOOOOOOOOOOOOOOOOOOOOOOOOOOOOOOOOOOOOOOOOOOOOOOO",
"OOOOOOOOOOOOOOOOOOOOOOOOOOOOOOOOOOOOOOOOOOOOOOOOOOOOOOOOOOOOOOOOOOOOOOOOOOOOOOOO",
"OOOOOOOOOOOOOOOOOOOOOOOOOOOOOOOOOOOOOOOOOOOOOOOOOOOOOOOOOOOOOOOOOOOOOOOOOOOOOOOO",
"OOOOOOOOOOOOOOOOOOOOOOOOOOOOOOOOOOOOOOOOOOOOOOOOOOOOOOOOOOOOOOOOOOOOOOOOOOOOOOOO",
"OOOOOOOOOOOOOOOOOOOOOOOOOOOOOOOOOOOOOOOOOOOOOOOOOOOOOOOOOOOOOOOOOOOOOOOOOOOOOOOO",
"OOOOOOOOOOOOOOOOOOOOOOOOOOOOOOOOOOOOOOOOOOOOOOOOOOOOOOOOOOOOOOOOOOOOOOOOOOOOOOOO",
"OOOOOOOOOOOOOOOOOOOOOOOOOOOOOOOOOOOOOOOOOOOOOOOOOOOOOOOOOOOOOOOOOOOOOOOOOOOOOOOO",
"OOOOOOOOOOOOOOOOOOOOOOOOOOOOOOOOOOOOOOOOOOOOOOOOOOOOOOOOOOOOOOOOOOOOOOOOOOOOOOOO",
"OOOOOOOOOOOOOOOOOOOOOOOOOOOOOOOOOOOOOOOOOOOOOOOOOOOOOOOOOOOOOOOOOOOOOOOOOOOOOOOO",
"OOOOOOOOOOOOOOOOOOOOOOOOOOOOOOOOOOOOOOOOOOOOOOOOOOOOOOOOOOOOOOOOOOOOOOOOOOOOOOOO",
"OOOOOOOOOOOOOOOOOOOOOOOOOOOOOOOOOOOOOOOOOOOOOOOOOOOOOOOOOOOOOOOOOOOOOOOOOOOOOOOO",
"OOOOOOOOOOOOOOOOOOOOOOOOOOOOOOOOOOOOOOOOOOOOOOOOOOOOOOOOOOOOOOOOOOOOOOOOOOOOOOOO",
"OOOOOOOOOOOOOOOOOOOOOOOOOOOOOOOOOOOOOOOOOOOOOOOOOOOOOOOOOOOOOOOOOOOOOOOOOOOOOOOO",
"OOOOOOOOOOOOOOOOOOOOOOOOOOOOOOOOOOOOOOOOOOOOOOOOOOOOOOOOOOOOOOOOOOOOOOOOOOOOOOOO",
"OOOOOOOOOOOOOOOOOOOOOOOOOOOOOOOOOOOOOOOOOOOOOOOOOOOOOOOOOOOOOOOOOOOOOOOOOOOOOOOO",
"OOOOOOOOOOOOOOOOOOOOOOOOOOOOOOOOOOOOOOOOOOOOOOOOOOOOOOOOOOOOOOOOOOOOOOOOOOOOOOOO",
"OOOOOOOOOOOOOOOOOOOOOOOOOOOOOOOOOOOOOOOOOOOOOOOOOOOOOOOOOOOOOOOOOOOOOOOOOOOOOOOO",
"OOOOOOOOOOOOOOOOOOOOOOOOOOOOOOOOOOOOOOOOOOOOOOOOOOOOOOOOOOOOOOOOOOOOOOOOOOOOOOOO",
"OOOOOOOOOOOOOOOOOOOOOOOOOOOOOOOOOOOOOOOOOOOOOOOOOOOOOOOOOOOOOOOOOOOOOOOOOOOOOOOO",
"OOOOOOOOOOOOOOOOOOOOOOOOOOOOOOOOOOOOOOOOOOOOOOOOOOOOOOOOOOOOOOOOOOOOOOOOOOOOOOOO",
"OOOOOOOOOOOOOOOOOOOOOOOOOOOOOOOOOOOOOOOOOOOOOOOOOOOOOOOOOOOOOOOOOOOOOOOOOOOOOOOO",
"OOOOOOOOOOOOOOOOOOOOOOOOOOOOOOOOOOOOOOOOOOOOOOOOOOOOOOOOOOOOOOOOOOOOOOOOOOOOOOOO",
"OOOOOOOOOOOOOOOOOOOOOOOOOOOOOOOOOOOOOOOOOOOOOOOOOOOOOOOOOOOOOOOOOOOOOOOOOOOOOOOO",
"OOOOOOOOOOOOOOOOOOOOOOOOOOOOOOOOOOOOOOOOOOOOOOOOOOOOOOOOOOOOOOOOOOOOOOOOOOOOOOOO",
"OOOOOOOOOOOOOOOOOOOOOOOOOOOOOOOOOOOOOOOOOOOOOOOOOOOOOOOOOOOOOOOOOOOOOOOOOOOOOOOO",
"OOOOOOOOOOOOOOOOOOOOOOOOOOOOOOOOOOOOOOOOOOOOOOOOOOOOOOOOOOOOOOOOOOOOOOOOOOOOOOOO",
"OOOOOOOOOOOOOOOOO                                              OOOOOOOOOOOOOOOOO",
"OOOOOOOOOOOOOOOOO                                              OOOOOOOOOOOOOOOOO",
"OOOOOOOOOOOOOOOOO                                              OOOOOOOOOOOOOOOOO",
"OOOOOOOOOOOOOOOOO                                              OOOOOOOOOOOOOOOOO",
"OOOOOOOOOOOOOOOOO                                              OOOOOOOOOOOOOOOOO",
"OOOOOOOOOOOOOOOOO                                              OOOOOOOOOOOOOOOOO",
"OOOOOOOOOOO      XXXXXXoooooooooooXXXXXXXXXXXXoooooooooooXXXXXX      OOOOOOOOOOO",
"OOOOOOOOOOO      XXXXXXoooooooooooXXXXXXXXXXXXoooooooooooXXXXXX      OOOOOOOOOOO",
"OOOOOOOOOOO      XXXXXXoooooooooooXXXXXXXXXXXXoooooooooooXXXXXX      OOOOOOOOOOO",
"OOOOOOOOOOO      XXXXXXoooooooooooXXXXXXXXXXXXoooooooooooXXXXXX      OOOOOOOOOOO",
"OOOOOOOOOOO      XXXXXXoooooooooooXXXXXXXXXXXXoooooooooooXXXXXX      OOOOOOOOOOO",
"OOOOOOOOOOO      XXXXXXoooooooooooXXXXXXXXXXXXoooooooooooXXXXXX      OOOOOOOOOOO",
"OOOOOO     oooooooooooo      ......................      oooooooooooo     OOOOOO",
"OOOOOO     oooooooooooo      ......................      oooooooooooo     OOOOOO",
"OOOOOO     oooooooooooo      ......................      oooooooooooo     OOOOOO",
"OOOOOO     oooooooooooo      ......................      oooooooooooo     OOOOOO",
"OOOOOO     oooooooooooo      ......................      oooooooooooo     OOOOOO",
"OOOOOO     XXXXXXoooooooooooo                      ooooooooooooXXXXXX     OOOOOO",
"OOOOOO     XXXXXXoooooooooooo                      ooooooooooooXXXXXX     OOOOOO",
"OOOOOO     XXXXXXoooooooooooo                      ooooooooooooXXXXXX     OOOOOO",
"OOOOOO     XXXXXXoooooooooooo                      ooooooooooooXXXXXX     OOOOOO",
"OOOOOO     XXXXXXoooooooooooo                      ooooooooooooXXXXXX     OOOOOO",
"OOOOOO     XXXXXXoooooooooooo                      ooooooooooooXXXXXX     OOOOOO",
"OOOOOO     ......XXXXXXXXXXXXXXXXXXXXXXXXXXXXXXXXXXXXXXXXXXXXXX......     OOOOOO",
"OOOOOO     ......XXXXXXXXXXXXXXXXXXXXXXXXXXXXXXXXXXXXXXXXXXXXXX......     OOOOOO",
"OOOOOO     ......XXXXXXXXXXXXXXXXXXXXXXXXXXXXXXXXXXXXXXXXXXXXXX......     OOOOOO",
"OOOOOO     ......XXXXXXXXXXXXXXXXXXXXXXXXXXXXXXXXXXXXXXXXXXXXXX......     OOOOOO",
"OOOOOO     ......XXXXXXXXXXXXXXXXXXXXXXXXXXXXXXXXXXXXXXXXXXXXXX......     OOOOOO",
"OOOOOO     ......XXXXXXXXXXXXXXXXXXXXXXXXXXXXXXXXXXXXXXXXXXXXXX......     OOOOOO",
"OOOOOOOOOOO      ............XXXXXXXXXXXXXXXXX...........XXXXXX      OOOOOOOOOOO",
"OOOOOOOOOOO      ............XXXXXXXXXXXXXXXXX...........XXXXXX      OOOOOOOOOOO",
"OOOOOOOOOOO      ............XXXXXXXXXXXXXXXXX...........XXXXXX      OOOOOOOOOOO",
"OOOOOOOOOOO      ............XXXXXXXXXXXXXXXXX...........XXXXXX      OOOOOOOOOOO",
"OOOOOOOOOOO      ............XXXXXXXXXXXXXXXXX...........XXXXXX      OOOOOOOOOOO",
"OOOOOOOOOOO      ............XXXXXXXXXXXXXXXXX...........XXXXXX      OOOOOOOOOOO",
"OOOOOOOOOOOOOOOOO                                              OOOOOOOOOOOOOOOOO",
"OOOOOOOOOOOOOOOOO                                              OOOOOOOOOOOOOOOOO",
"OOOOOOOOOOOOOOOOO                                              OOOOOOOOOOOOOOOOO",
"OOOOOOOOOOOOOOOOO                                              OOOOOOOOOOOOOOOOO",
"OOOOOOOOOOOOOOOOO                                              OOOOOOOOOOOOOOOOO",
"OOOOOOOOOOOOOOOOOOOOOOOOOOOOOOOOOOOOOOOOOOOOOOOOOOOOOOOOOOOOOOOOOOOOOOOOOOOOOOOO",
"OOOOOOOOOOOOOOOOOOOOOOOOOOOOOOOOOOOOOOOOOOOOOOOOOOOOOOOOOOOOOOOOOOOOOOOOOOOOOOOO",
"OOOOOOOOOOOOOOOOOOOOOOOOOOOOOOOOOOOOOOOOOOOOOOOOOOOOOOOOOOOOOOOOOOOOOOOOOOOOOOOO",
"OOOOOOOOOOOOOOOOOOOOOOOOOOOOOOOOOOOOOOOOOOOOOOOOOOOOOOOOOOOOOOOOOOOOOOOOOOOOOOOO",
"OOOOOOOOOOOOOOOOOOOOOOOOOOOOOOOOOOOOOOOOOOOOOOOOOOOOOOOOOOOOOOOOOOOOOOOOOOOOOOOO",
"OOOOOOOOOOOOOOOOOOOOOOOOOOOOOOOOOOOOOOOOOOOOOOOOOOOOOOOOOOOOOOOOOOOOOOOOOOOOOOOO"
};
