/* XPM */
static char *result[] = {
/* columns rows colors chars-per-pixel */
"80 80 8 1 ",
"  c #754C60",
". c #90625D",
"X c #C49A6C",
"o c #D4C169",
"O c #C58086",
"+ c #E8CFA6",
"@ c #F3F2C0",
"# c None",
/* pixels */
"################################################################################",
"################################################################################",
"################################################################################",
"################################################################################",
"################################################################################",
"################################################################################",
"#####################################..................#########################",
"#####################################..................#########################",
"#####################################..................#########################",
"#####################################..................#########################",
"#####################################..................#########################",
"#####################################..................#########################",
"###############################......OOOOOOOOOOOOOOOOOO.......##################",
"###############################......OOOOOOOOOOOOOOOOOO.......##################",
"###############################......OOOOOOOOOOOOOOOOOO.......##################",
"###############################......OOOOOOOOOOOOOOOOOO.......##################",
"###############################......OOOOOOOOOOOOOOOOOO.......##################",
"###############################......OOOOOOOOOOOOOOOOOO.......##################",
"#########################......@@@@@@@@@@@@@@@@@@@@@@@@@@@@@@@......############",
"#########################......@@@@@@@@@@@@@@@@@@@@@@@@@@@@@@@......############",
"#########################......@@@@@@@@@@@@@@@@@@@@@@@@@@@@@@@......############",
"#########################......@@@@@@@@@@@@@@@@@@@@@@@@@@@@@@@......############",
"#########################......@@@@@@@@@@@@@@@@@@@@@@@@@@@@@@@......############",
"#########################......@@@@@@@@@@@@@@@@@@@@@@@@@@@@@@@......############",
"#########################......@@@@@@@@@@@@@@@@@@@@@@@@@@@@@@@......############",
"##################.......@@@@@@      @@@@@@@@@@@@      @@@@@@@@@@@@@......######",
"##################.......@@@@@@      @@@@@@@@@@@@      @@@@@@@@@@@@@......######",
"##################.......@@@@@@      @@@@@@@@@@@@      @@@@@@@@@@@@@......######",
"##################.......@@@@@@      @@@@@@@@@@@@      @@@@@@@@@@@@@......######",
"##################.......@@@@@@      @@@@@@@@@@@@      @@@@@@@@@@@@@......######",
"##################.......@@@@@@      @@@@@@@@@@@@      @@@@@@@@@@@@@......######",
"##################.......@@@@@@@@@@@@@@@@@@oooooooooooo@@@@@@@@@@@@@......######",
"##################.......@@@@@@@@@@@@@@@@@@oooooooooooo@@@@@@@@@@@@@......######",
"##################.......@@@@@@@@@@@@@@@@@@oooooooooooo@@@@@@@@@@@@@......######",
"##################.......@@@@@@@@@@@@@@@@@@oooooooooooo@@@@@@@@@@@@@......######",
"##################.......@@@@@@@@@@@@@@@@@@oooooooooooo@@@@@@@@@@@@@......######",
"##################.......@@@@@@@@@@@@@@@@@@oooooooooooo@@@@@@@@@@@@@......######",
"############......@@@@@@@@@@@@@@@@@@@@@@@@@@@@@@@@@@@@@@@@@@@@@@@@@@......######",
"############......@@@@@@@@@@@@@@@@@@@@@@@@@@@@@@@@@@@@@@@@@@@@@@@@@@......######",
"############......@@@@@@@@@@@@@@@@@@@@@@@@@@@@@@@@@@@@@@@@@@@@@@@@@@......######",
"############......@@@@@@@@@@@@@@@@@@@@@@@@@@@@@@@@@@@@@@@@@@@@@@@@@@......######",
"############......@@@@@@@@@@@@@@@@@@@@@@@@@@@@@@@@@@@@@@@@@@@@@@@@@@......######",
"############......@@@@@@@@@@@@@@@@@@@@@@@@@@@@@@@@@@@@@@@@@@@@@@@@@@......######",
"######......@@@@@@@@@@@@@@@@@@@@@@@@@@@@@@@@@@@@@@@@@@@@@@@@@@@@@@@@......######",
"######......@@@@@@@@@@@@@@@@@@@@@@@@@@@@@@@@@@@@@@@@@@@@@@@@@@@@@@@@......######",
"######......@@@@@@@@@@@@@@@@@@@@@@@@@@@@@@@@@@@@@@@@@@@@@@@@@@@@@@@@......######",
"######......@@@@@@@@@@@@@@@@@@@@@@@@@@@@@@@@@@@@@@@@@@@@@@@@@@@@@@@@......######",
"######......@@@@@@@@@@@@@@@@@@@@@@@@@@@@@@@@@@@@@@@@@@@@@@@@@@@@@@@@......######",
"######......@@@@@@@@@@@@@@@@@@@@@@@@@@@@@@@@@@@@@@@@@@@@@@@@@@@@@@@@......######",
"######......++++++@@@@@@@XXXXXX@@@@@@@@@@@@@@@@@@@@@@@@@@@@@@@++++++......######",
"######......++++++@@@@@@@XXXXXX@@@@@@@@@@@@@@@@@@@@@@@@@@@@@@@++++++......######",
"######......++++++@@@@@@@XXXXXX@@@@@@@@@@@@@@@@@@@@@@@@@@@@@@@++++++......######",
"######......++++++@@@@@@@XXXXXX@@@@@@@@@@@@@@@@@@@@@@@@@@@@@@@++++++......######",
"######......++++++@@@@@@@XXXXXX@@@@@@@@@@@@@@@@@@@@@@@@@@@@@@@++++++......######",
"######......++++++@@@@@@@XXXXXX@@@@@@@@@@@@@@@@@@@@@@@@@@@@@@@++++++......######",
"######......XXXXXXXXXXXXX+++++++++++++++++++++++++++++++++++++++++++......######",
"######......XXXXXXXXXXXXX+++++++++++++++++++++++++++++++++++++++++++......######",
"######......XXXXXXXXXXXXX+++++++++++++++++++++++++++++++++++++++++++......######",
"######......XXXXXXXXXXXXX+++++++++++++++++++++++++++++++++++++++++++......######",
"######......XXXXXXXXXXXXX+++++++++++++++++++++++++++++++++++++++++++......######",
"######......XXXXXXXXXXXXX+++++++++++++++++++++++++++++++++++++++++++......######",
"######......XXXXXXXXXXXXX+++++++++++++++++++++++++++++++++++++++++++......######",
"######......ooooooooooooo..............................ooooooooooooo......######",
"######......ooooooooooooo..............................ooooooooooooo......######",
"######......ooooooooooooo..............................ooooooooooooo......######",
"######......ooooooooooooo..............................ooooooooooooo......######",
"######......ooooooooooooo..............................ooooooooooooo......######",
"######......ooooooooooooo..............................ooooooooooooo......######",
"############.............##############################.............############",
"############.............##############################.............############",
"############.............##############################.............############",
"############.............##############################.............############",
"############.............##############################.............############",
"############.............##############################.............############",
"################################################################################",
"################################################################################",
"################################################################################",
"################################################################################",
"################################################################################",
"################################################################################"
};
