/* XPM */
static char *result[] = {
/* columns rows colors chars-per-pixel */
"80 80 10 1 ",
"  c #5F7A79",
". c #90625D",
"X c #AA7959",
"o c #6E967C",
"O c #B68962",
"+ c #C49A6C",
"@ c #97BB8E",
"# c #AED499",
"$ c #C2E09A",
"% c None",
/* pixels */
"%%%%%%%%%%%%%%%%%%%%%%%%%%%%%%%%%%%%%%%%%%%%%%%%%%%%%%%%%%%%%%%%%%%%%%%%%%%%%%%%",
"%%%%%%%%%%%%%%%%%%%%%%%%%%%%%%%%%%%%%%%%%%%%%%%%%%%%%%%%%%%%%%%%%%%%%%%%%%%%%%%%",
"%%%%%%%%%%%%%%%%%%%%%%%%%%%%%%                      %%%%%%%%%%%%%%%%%%%%%%%%%%%%",
"%%%%%%%%%%%%%%%%%%%%%%%%%%%%%%                      %%%%%%%%%%%%%%%%%%%%%%%%%%%%",
"%%%%%%%%%%%%%%%%%%%%%%%%%%%%%%                      %%%%%%%%%%%%%%%%%%%%%%%%%%%%",
"%%%%%%%%%%%%%%%%%%%%%%%%%     @@###############@@@@@   %%%%%%%%%%%%%%%%%%%%%%%%%",
"%%%%%%%%%%%%%%%%%%%%%%%%%     @@###############@@@@@   %%%%%%%%%%%%%%%%%%%%%%%%%",
"%%%%%%%%%%%%%%%%%%%%     @@########$$$$$$$###$$$$$##@@@     %%%%%%%%%%%%%%%%%%%%",
"%%%%%%%%%%%%%%%%%%%%     @@########$$$$$$$###$$$$$##@@@     %%%%%%%%%%%%%%%%%%%%",
"%%%%%%%%%%%%%%%%%%%%     @@########$$$$$$$###$$$$$##@@@     %%%%%%%%%%%%%%%%%%%%",
"%%%%%%%%%%%%%%%%%   @@#############$$$$$$$###$$$$$#####@@@@@  %%%%%%%%%%%%%%%%%%",
"%%%%%%%%%%%%%%%%%   @@#############$$$$$$$###$$$$$#####@@@@@  %%%%%%%%%%%%%%%%%%",
"%%%%%%%%%%%%%%%  @@@##$$$$$$$$##$$$$$$$$####################@@   %%%%%%%%%%%%%%%",
"%%%%%%%%%%%%%%%  @@@##$$$$$$$$##$$$$$$$$####################@@   %%%%%%%%%%%%%%%",
"%%%%%%%%%%%%%%%  @@@##$$$$$$$$##$$$$$$$$####################@@   %%%%%%%%%%%%%%%",
"%%%%%%%%%%%%   @@@@@##$$$$$$$$$$$$$$$########$$$$$$$########@@@@@  %%%%%%%%%%%%%",
"%%%%%%%%%%%%   @@@@@##$$$$$$$$$$$$$$$########$$$$$$$########@@@@@  %%%%%%%%%%%%%",
"%%%%%%%%%%%%   ############$$$$$#############$$$$$$$$$$$$$$$@@@@@  %%%%%%%%%%%%%",
"%%%%%%%%%%%%   ############$$$$$#############$$$$$$$$$$$$$$$@@@@@  %%%%%%%%%%%%%",
"%%%%%%%%%%%%   ############$$$$$#############$$$$$$$$$$$$$$$@@@@@  %%%%%%%%%%%%%",
"%%%%%%%%%%  @@@#####################################$$$$$$$$#####@@   %%%%%%%%%%",
"%%%%%%%%%%  @@@#####################################$$$$$$$$#####@@   %%%%%%%%%%",
"%%%%%%%%%%  @@@##################################################@@   %%%%%%%%%%",
"%%%%%%%%%%  @@@##################################################@@   %%%%%%%%%%",
"%%%%%%%%%%  @@@##################################################@@   %%%%%%%%%%",
"%%%%%%%%%%  @@@@@@@@#######@@@@@###############@@@@@@@@#####@@@@@@@   %%%%%%%%%%",
"%%%%%%%%%%  @@@@@@@@#######@@@@@###############@@@@@@@@#####@@@@@@@   %%%%%%%%%%",
"%%%%%%%%%%  @@@@@@@@#######@@@@@###############@@@@@@@@#####@@@@@  %%%%%%%%%%%%%",
"%%%%%%%%%%  @@@@@@@@#######@@@@@###############@@@@@@@@#####@@@@@  %%%%%%%%%%%%%",
"%%%%%%%%%%  @@@@@@@@#######@@@@@###############@@@@@@@@#####@@@@@  %%%%%%%%%%%%%",
"%%%%%%%%%%  @@@@@@@@@@@@@@@@@@@@@@@@@@@@#####@@########@@@@@@@@@@  %%%%%%%%%%%%%",
"%%%%%%%%%%  @@@@@@@@@@@@@@@@@@@@@@@@@@@@#####@@########@@@@@@@@@@  %%%%%%%%%%%%%",
"%%%%%%%%%%%%   @@@@@@@########@@@@@@@@@@@@@@@@@@@@@@@@@@@@@@@@@@@@@   %%%%%%%%%%",
"%%%%%%%%%%%%   @@@@@@@########@@@@@@@@@@@@@@@@@@@@@@@@@@@@@@@@@@@@@   %%%%%%%%%%",
"%%%%%%%%%%%%   @@@@@@@########@@@@@@@@@@@@@@@@@@@@@@@@@@@@@@@@@@@@@   %%%%%%%%%%",
"%%%%%%%%%%%%   @@@@@@@@@@@@@@@@@@@@@@@@@@@@@@@@@@@@@@@@@@@@@@@@@@@@   %%%%%%%%%%",
"%%%%%%%%%%%%   @@@@@@@@@@@@@@@@@@@@@@@@@@@@@@@@@@@@@@@@@@@@@@@@@@@@   %%%%%%%%%%",
"%%%%%%%%%%  ooo@@@@@@@@@@@@@@@@@@@@@@@@@@@@@@@@@@@@@@@@@@@@@@@@@@oo   %%%%%%%%%%",
"%%%%%%%%%%  ooo@@@@@@@@@@@@@@@@@@@@@@@@@@@@@@@@@@@@@@@@@@@@@@@@@@oo   %%%%%%%%%%",
"%%%%%%%%%%  ooo@@@@@@@@@@@@@@@@@@@@@@@@@@@@@@@@@@@@@@@@@@@@@@@@@@oo   %%%%%%%%%%",
"%%%%%%%%%%  oooooooo@@ooooo@@@@@oooooooo@@@@@@@@@@@@ooooooooooooooo   %%%%%%%%%%",
"%%%%%%%%%%  oooooooo@@ooooo@@@@@oooooooo@@@@@@@@@@@@ooooooooooooooo   %%%%%%%%%%",
"%%%%%%%%%%  oooooooo@@ooooo@@@@@oooooooo@@@@@@@@@@@@ooooooooooooooo   %%%%%%%%%%",
"%%%%%%%%%%  oooooooo@@ooooo@@@@@oooooooo@@@@@@@@@@@@ooooooooooooooo   %%%%%%%%%%",
"%%%%%%%%%%  oooooooo@@ooooo@@@@@oooooooo@@@@@@@@@@@@ooooooooooooooo   %%%%%%%%%%",
"%%%%%%%%%%  oooooooooooooooooooo@@@@@@@@@@@@@ooooooo@@@@@@@@ooooo  %%%%%%%%%%%%%",
"%%%%%%%%%%  oooooooooooooooooooo@@@@@@@@@@@@@ooooooo@@@@@@@@ooooo  %%%%%%%%%%%%%",
"%%%%%%%%%%%%   ooooo@@@@@@@oooooooooooooooooooooooooooooooooooooo  %%%%%%%%%%%%%",
"%%%%%%%%%%%%   ooooo@@@@@@@oooooooooooooooooooooooooooooooooooooo  %%%%%%%%%%%%%",
"%%%%%%%%%%%%   ooooo@@@@@@@oooooooooooooooooooooooooooooooooooooo  %%%%%%%%%%%%%",
"%%%%%%%%%%%%   oooooooooooooooooooooooooooooooooooooooooooooooooo  %%%%%%%%%%%%%",
"%%%%%%%%%%%%   oooooooooooooooooooooooooooooooooooooooooooooooooo  %%%%%%%%%%%%%",
"%%%%%%%%%%%%%%%  ooooooooooooooooooooooooooooooooooooooooooooo   %%%%%%%%%%%%%%%",
"%%%%%%%%%%%%%%%  ooooooooooooooooooooooooooooooooooooooooooooo   %%%%%%%%%%%%%%%",
"%%%%%%%%%%%%%%%  ooooooooooooooooooooooooooooooooooooooooooooo   %%%%%%%%%%%%%%%",
"%%%%%%%%%%%%%%%%%     ooooooooooooooooooooooooooooooooo       %%%%%%%%%%%%%%%%%%",
"%%%%%%%%%%%%%%%%%     ooooooooooooooooooooooooooooooooo       %%%%%%%%%%%%%%%%%%",
"%%%%%%%%%%%%%%%%%%%%%%                                 %%%%%%%%%%%%%%%%%%%%%%%%%",
"%%%%%%%%%%%%%%%%%%%%%%                                 %%%%%%%%%%%%%%%%%%%%%%%%%",
"%%%%%%%%%%%%%%%%%%%%%%                                 %%%%%%%%%%%%%%%%%%%%%%%%%",
"%%%%%%%%%%%%%%%%%%%%%%%%%%%%%%..XXXXXXXXXXXXXXX...%%%%%%%%%%%%%%%%%%%%%%%%%%%%%%",
"%%%%%%%%%%%%%%%%%%%%%%%%%%%%%%..XXXXXXXXXXXXXXX...%%%%%%%%%%%%%%%%%%%%%%%%%%%%%%",
"%%%%%%%%%%%%%%%%%%%%%%%%%%%%%%..OOOXXXXXXXXXXOO...%%%%%%%%%%%%%%%%%%%%%%%%%%%%%%",
"%%%%%%%%%%%%%%%%%%%%%%%%%%%%%%..OOOXXXXXXXXXXOO...%%%%%%%%%%%%%%%%%%%%%%%%%%%%%%",
"%%%%%%%%%%%%%%%%%%%%%%%%%%%%%%..OOOXXXXXXXXXXOO...%%%%%%%%%%%%%%%%%%%%%%%%%%%%%%",
"%%%%%%%%%%%%%%%%%%%%%%%%%%%%%%..OOOOOOOOOOOOOOO...%%%%%%%%%%%%%%%%%%%%%%%%%%%%%%",
"%%%%%%%%%%%%%%%%%%%%%%%%%%%%%%..OOOOOOOOOOOOOOO...%%%%%%%%%%%%%%%%%%%%%%%%%%%%%%",
"%%%%%%%%%%%%%%%%%%%%%%%%%%%%%%..OOO++OOO+++++++...%%%%%%%%%%%%%%%%%%%%%%%%%%%%%%",
"%%%%%%%%%%%%%%%%%%%%%%%%%%%%%%..OOO++OOO+++++++...%%%%%%%%%%%%%%%%%%%%%%%%%%%%%%",
"%%%%%%%%%%%%%%%%%%%%%%%%%%%%%%..OOO++OOO+++++++...%%%%%%%%%%%%%%%%%%%%%%%%%%%%%%",
"%%%%%%%%%%%%%%%%%%%%%%%%%%%...++++++++++++++++++++..%%%%%%%%%%%%%%%%%%%%%%%%%%%%",
"%%%%%%%%%%%%%%%%%%%%%%%%%%%...++++++++++++++++++++..%%%%%%%%%%%%%%%%%%%%%%%%%%%%",
"%%%%%%%%%%%%%%%%%%%%%%%%%%%%%%++++++++++++++++++++%%%%%%%%%%%%%%%%%%%%%%%%%%%%%%",
"%%%%%%%%%%%%%%%%%%%%%%%%%%%%%%++++++++++++++++++++%%%%%%%%%%%%%%%%%%%%%%%%%%%%%%",
"%%%%%%%%%%%%%%%%%%%%%%%%%%%%%%++++++++++++++++++++%%%%%%%%%%%%%%%%%%%%%%%%%%%%%%",
"%%%%%%%%%%%%%%%%%%%%%%%%%%%%%%%%%%%%%+++++%%%%%%%%%%%%%%%%%%%%%%%%%%%%%%%%%%%%%%",
"%%%%%%%%%%%%%%%%%%%%%%%%%%%%%%%%%%%%%+++++%%%%%%%%%%%%%%%%%%%%%%%%%%%%%%%%%%%%%%",
"%%%%%%%%%%%%%%%%%%%%%%%%%%%%%%%%%%%%%%%%%%%%%%%%%%%%%%%%%%%%%%%%%%%%%%%%%%%%%%%%",
"%%%%%%%%%%%%%%%%%%%%%%%%%%%%%%%%%%%%%%%%%%%%%%%%%%%%%%%%%%%%%%%%%%%%%%%%%%%%%%%%",
"%%%%%%%%%%%%%%%%%%%%%%%%%%%%%%%%%%%%%%%%%%%%%%%%%%%%%%%%%%%%%%%%%%%%%%%%%%%%%%%%"
};
